<?xml version="1.0" standalone="no"?><!DOCTYPE svg PUBLIC "-//W3C//DTD SVG 1.1//EN" "http://www.w3.org/Graphics/SVG/1.1/DTD/svg11.dtd"><svg t="1557849133127" class="icon" style="" viewBox="0 0 1025 1024" version="1.1" xmlns="http://www.w3.org/2000/svg" p-id="2057" xmlns:xlink="http://www.w3.org/1999/xlink" width="200.1953125" height="200"><defs><style type="text/css"></style></defs><path d="M512 320.04096c-141.4144 0-256 114.5856-256 256 0 141.37344 114.5856 256 256 256 141.37344 0 256-114.62656 256-256s-114.62656-256-256-256zM657.75616 700.98944c-68.99712 80.50688-190.17728 89.82528-270.68416 20.80768-80.54784-68.99712-89.82528-190.21824-20.80768-270.68416 68.95616-80.54784 190.17728-89.82528 270.68416-20.80768 80.4864 68.95616 89.78432 190.21824 20.80768 270.68416zM512 448.04096c8.82688 0 15.99488 7.168 15.99488 15.99488s-7.168 15.99488-15.99488 15.99488c-53.02272 0-95.96928 42.96704-96.01024 95.96928l0 0.06144c0 8.8064-7.168 15.99488-15.99488 15.99488s-15.99488-7.20896-15.99488-15.99488l0-0.06144c0.04096-70.656 57.30304-127.95904 128-127.95904zM943.73888 289.34144l-138.69056-23.1424-43.9296-109.89568c-14.68416-36.63872-49.70496-60.3136-89.12896-60.3136l-320 0c-39.424 0-74.42432 23.67488-89.14944 60.35456l-43.90912 109.85472-138.6496 23.1424c-46.53056 7.72096-80.2816 47.5136-80.2816 94.65856l0 480.01024c0 52.92032 43.06944 96.01024 96.01024 96.01024l832 0c52.92032 0 96.01024-43.06944 96.01024-96.01024l0-480.01024c0-47.14496-33.75104-86.9376-80.26112-94.65856zM960 864.01024c0 17.69472-14.29504 32.01024-32.01024 32.01024l-832 0c-17.69472 0-32.01024-14.29504-32.01024-32.01024l0-480.01024c0-15.64672 11.32544-28.99968 26.74688-31.55968l174.20288-29.02016 57.30304-143.29856c4.89472-12.12416 16.62976-20.13184 29.73696-20.13184l320 0c13.06624 0 24.80128 7.96672 29.696 20.13184l57.30304 143.29856 174.24384 29.02016c15.42144 2.56 26.74688 15.91296 26.74688 31.55968l0 480.01024z" p-id="2058" fill="#d4237a"></path></svg>